# xmcd CD database file
#
# Track frame offsets:
#	150
#	13128
#	31863
#	49431
#	62827
#	79097
#	98037
#	108426
#	123349
#	140037
#	147725
#	158904
#	171660
#	185206
#	202916
#	214938
#	229313
#
# Disc length: 3271 seconds
#
# Revision: 2
# Processed by: cddbd v1.5.1PL2 Copyright (c) Steve Scherf et al.
# Submitted via: Feurio! 1.68 - http://www.feurio.com
#
DISCID=080cc511
DTITLE=Various Artist - We Walk The Line - Inside a Norwegian Prison
DYEAR=1900
DGENRE=country
TTITLE0=Thomas Dybdahl with Rita Eriksen and Hilde Heltberg  - I Still Miss 
TTITLE0=Someone
TTITLE1=Paal Flaata  - Sunday Morning Coming Down
TTITLE2=Magnet - I Walk The Line
TTITLE3=Karen Jo Fields  - Tennessee Flat-Top Box
TTITLE4=Sergeant Petter - Give My Love To Rose
TTITLE5=Vidar Busk - Get Rhythm
TTITLE6=Rita Eriksen  - I Guess Things Happen That Way
TTITLE7=Steinar Albrigtsen - Don't Take Your Guns To Town
TTITLE8=Paal Flaata - The First Time I Saw Your Face
TTITLE9=Øystein Greni - Solitary Man
TTITLE10=Karen Jo Fields and Sivert Høyem - If I Were A Carpenter
TTITLE11=Sondre Bratland with Rita Eriksen and Hilde Heltberg - It Was Jesus
TTITLE12=Sivert Høyem - Big River
TTITLE13=Hilde Heltberg and Rita Eriksen  - Wayfaring Stranger
TTITLE14=Thrond Asker  - Folsom Prison Blues
TTITLE15=Steinar Albrigtsen - Long Black Veil
TTITLE16=Magnet - The Lucky Old Sun (Just Rolls Around Heaven All Day)
EXTD=A tribute to Johnny Cash. Recorded at Oslo Prison December 9th 2003.
EXTT0=
EXTT1=
EXTT2=
EXTT3=
EXTT4=
EXTT5=
EXTT6=
EXTT7=
EXTT8=
EXTT9=
EXTT10=
EXTT11=
EXTT12=
EXTT13=
EXTT14=
EXTT15=
EXTT16=
PLAYORDER=
